<?xml version="1.0" standalone="no"?>
<!DOCTYPE svg PUBLIC "-//W3C//DTD SVG 20010904//EN"
 "http://www.w3.org/TR/2001/REC-SVG-20010904/DTD/svg10.dtd">
<svg version="1.0" xmlns="http://www.w3.org/2000/svg"
 width="850.000000pt" height="850.000000pt" viewBox="0 0 850.000000 850.000000"
 preserveAspectRatio="xMidYMid meet">
<metadata>
Created by potrace 1.14, written by Peter Selinger 2001-2017
</metadata>
<g transform="translate(0.000000,850.000000) scale(0.100000,-0.100000)"
fill="#000000" stroke="none">
<path d="M4170 8489 c-145 -10 -333 -47 -458 -90 -128 -44 -334 -149 -442
-226 -123 -88 -300 -260 -393 -382 -314 -409 -510 -864 -611 -1418 -19 -103
-36 -164 -62 -220 -20 -43 -57 -131 -84 -195 -26 -65 -50 -115 -53 -112 -3 4
-5 -2 -5 -12 1 -11 -17 -77 -40 -149 -109 -342 -166 -671 -165 -940 0 -167 12
-271 48 -423 19 -80 25 -132 25 -225 1 -135 17 -243 49 -326 11 -30 20 -55 18
-56 -1 -1 -23 -7 -48 -14 -64 -18 -112 -70 -154 -167 l-34 -79 -881 -3 -880
-2 0 -1725 0 -1725 4250 0 4250 0 0 1725 0 1725 -784 0 -783 0 -5 68 c-5 69
-28 127 -74 189 -24 31 -24 33 -9 90 33 124 45 579 24 871 -22 311 -77 608
-225 1222 -293 1206 -544 1745 -1013 2173 -293 267 -700 412 -1211 430 -69 3
-181 1 -250 -4z m-2010 -2663 c-94 -485 -150 -846 -150 -968 0 -34 -11 -120
-25 -192 -14 -72 -31 -183 -38 -246 l-13 -115 -17 90 c-33 169 -42 331 -29
488 21 258 77 537 159 792 39 123 153 418 159 412 2 -2 -19 -119 -46 -261z
m4348 -136 c118 -427 122 -446 122 -565 0 -236 -36 -571 -86 -792 -29 -133
-38 -155 -27 -67 4 32 8 212 7 399 0 400 -9 516 -90 1230 -4 33 -4 58 -1 55 3
-3 37 -120 75 -260z m-4316 -868 c-5 -286 4 -423 39 -596 16 -80 63 -240 85
-292 2 -5 -19 -16 -47 -23 -28 -7 -75 -25 -104 -40 l-54 -27 -35 75 c-65 143
-64 138 -54 252 12 149 61 432 113 664 25 110 48 212 52 228 3 15 7 27 8 27 1
0 0 -121 -3 -268z m4538 -23 c69 -318 83 -435 77 -649 -3 -145 -8 -187 -27
-245 -12 -38 -25 -74 -30 -78 -4 -5 -32 9 -62 30 -41 28 -178 101 -225 119 -2
0 17 56 41 125 86 245 117 424 152 904 8 108 5 117 74 -206z m-4321 -64 c19
-243 70 -444 157 -617 l43 -87 -42 -12 c-23 -7 -51 -21 -63 -31 -21 -19 -75
-38 -105 -38 -23 0 -59 135 -66 248 -6 104 10 413 34 642 20 187 19 189 42
-105z m3897 45 c29 -304 21 -672 -15 -694 -8 -5 -177 46 -187 56 -3 3 6 46 20
94 14 49 32 127 41 174 9 47 30 127 46 179 29 90 69 295 69 349 0 65 10 2 26
-158z m-4216 -956 c1 -2 -10 -19 -24 -36 l-24 -32 -10 40 c-6 21 -13 75 -16
119 l-6 80 40 -83 c21 -45 40 -85 40 -88z"/>
<path d="M2002 6320 c0 -14 2 -19 5 -12 2 6 2 18 0 25 -3 6 -5 1 -5 -13z"/>
<path d="M2051 5984 c0 -11 3 -14 6 -6 3 7 2 16 -1 19 -3 4 -6 -2 -5 -13z"/>
<path d="M2062 5910 c0 -14 2 -19 5 -12 2 6 2 18 0 25 -3 6 -5 1 -5 -13z"/>
</g>
</svg>
